<?xml version="1.0" standalone="no"?>
<!DOCTYPE svg PUBLIC "-//W3C//DTD SVG 20010904//EN"
 "http://www.w3.org/TR/2001/REC-SVG-20010904/DTD/svg10.dtd">
<svg version="1.0" xmlns="http://www.w3.org/2000/svg"
 width="719.000000pt" height="789.000000pt" viewBox="0 0 719.000000 789.000000"
 preserveAspectRatio="xMidYMid meet">

<g transform="translate(0.000000,789.000000) scale(0.100000,-0.100000)"
fill="#ffffff" stroke="none">
<path d="M3360 7289 c0 -5 11 -9 25 -9 14 0 25 2 25 4 0 2 -11 6 -25 8 -14 3
-25 1 -25 -3z"/>
<path d="M3463 7293 c15 -2 37 -2 50 0 12 2 0 4 -28 4 -27 0 -38 -2 -22 -4z"/>
<path d="M3168 7253 c-10 -2 -18 -9 -18 -14 0 -13 13 -11 36 6 19 14 14 17
-18 8z"/>
<path d="M3520 7241 c0 -5 7 -12 16 -15 9 -4 15 -9 12 -12 -3 -2 -17 0 -32 5
-15 6 -26 7 -26 1 0 -5 -12 -5 -30 0 -30 9 -66 4 -87 -12 -7 -6 -13 -4 -16 4
-3 10 -8 11 -26 1 -11 -7 -28 -13 -36 -13 -8 0 -15 -7 -15 -15 0 -8 -4 -15
-10 -15 -5 0 -7 7 -4 15 7 17 -11 21 -21 5 -3 -5 -17 -10 -31 -10 -13 0 -24
-4 -24 -9 0 -4 -15 -12 -32 -17 -23 -7 -34 -17 -36 -32 -2 -13 -10 -26 -18
-29 -8 -3 -14 -11 -14 -19 0 -7 -9 -18 -20 -24 -12 -6 -20 -7 -20 -1 0 5 6 12
13 14 7 3 5 6 -5 6 -9 1 -21 -6 -26 -15 -14 -24 -144 -134 -153 -128 -4 2 -12
-4 -18 -13 -5 -10 -13 -15 -16 -11 -4 4 3 21 15 38 12 17 20 33 17 36 -3 3
-22 -25 -43 -63 -54 -97 -71 -111 -138 -116 -31 -3 -62 -10 -69 -15 -7 -5 -37
-6 -72 -2 -33 4 -63 6 -67 3 -4 -2 -9 1 -12 6 -6 9 -97 -17 -106 -30 -3 -4
-20 -9 -39 -12 -19 -3 -41 -13 -50 -23 -15 -16 -14 -16 4 -10 16 5 15 2 -5
-13 -24 -19 -41 -29 -100 -55 -30 -13 -57 -39 -88 -83 -13 -18 -32 -33 -43
-33 -10 0 -19 -7 -19 -15 0 -8 -16 -32 -35 -52 -22 -24 -31 -39 -24 -44 16 -9
2 -28 -27 -39 -13 -5 -24 -15 -24 -21 0 -6 6 -9 14 -6 19 8 26 -26 14 -69 -14
-53 -1 -54 22 -1 12 26 27 47 35 47 8 0 15 -2 15 -5 0 -16 -43 -85 -73 -119
-23 -25 -37 -52 -40 -78 -3 -22 -19 -68 -35 -102 -50 -102 -69 -234 -51 -351
6 -38 13 -133 15 -210 2 -77 8 -162 12 -189 7 -51 29 -75 31 -34 6 130 20 322
26 358 17 112 71 280 107 332 10 14 18 29 18 32 0 12 70 114 114 164 25 30 46
57 46 62 0 15 205 217 255 250 28 19 86 58 130 87 44 29 109 67 145 85 36 17
73 35 84 40 10 5 37 11 60 13 74 7 199 26 208 31 23 15 291 13 385 -1 196 -31
219 -34 298 -39 44 -3 114 -10 155 -15 41 -5 82 -9 90 -9 109 0 390 -93 494
-164 59 -40 185 -148 275 -235 24 -24 48 -43 53 -43 5 0 7 -4 4 -8 -3 -5 13
-28 35 -53 21 -24 39 -49 39 -56 0 -6 12 -22 28 -35 28 -25 64 -81 60 -95 -3
-15 37 -73 52 -73 13 0 13 -2 1 -9 -13 -8 -13 -14 -1 -38 7 -15 14 -32 16 -38
1 -5 9 -30 17 -55 9 -25 18 -64 20 -87 3 -23 8 -47 12 -53 18 -28 24 -305 8
-321 -11 -11 -13 -10 -13 0 0 7 -5 9 -11 5 -7 -4 -9 -21 -5 -44 4 -25 0 -48
-10 -69 -10 -21 -14 -44 -10 -64 4 -18 6 -44 6 -59 0 -15 4 -29 10 -33 16 -10
12 -53 -6 -63 -12 -7 -14 -17 -9 -46 6 -32 9 -34 20 -20 10 15 16 10 44 -39
18 -31 37 -59 42 -63 5 -3 7 -21 3 -40 -5 -27 -3 -34 10 -34 8 0 18 10 20 23
3 12 8 36 11 52 7 29 15 120 16 180 3 120 -11 507 -21 580 -6 50 -15 128 -19
175 -8 90 -38 221 -54 231 -5 4 -10 33 -12 65 -2 33 -11 79 -20 104 -10 25
-20 63 -22 85 -3 22 -13 51 -23 65 -9 14 -15 31 -13 38 3 8 -4 16 -16 19 -23
6 -29 23 -8 23 6 0 -1 7 -17 15 -15 8 -31 13 -35 11 -10 -6 -51 13 -51 24 0
14 16 13 32 -3 11 -12 16 -12 28 1 13 14 12 15 -4 9 -13 -5 -17 -3 -13 6 3 8
-7 21 -24 31 -18 11 -26 22 -22 29 11 18 13 97 3 97 -5 0 -39 23 -74 52 -36
28 -82 57 -103 64 -21 7 -44 22 -52 34 -7 11 -20 20 -27 20 -8 0 -28 14 -46
30 -17 17 -37 30 -44 30 -8 0 -15 5 -15 10 -1 6 -2 15 -3 20 -2 18 -29 29 -56
25 -14 -3 -19 -2 -12 1 6 3 10 10 6 15 -3 5 -13 5 -25 -1 -15 -8 -25 -7 -44 7
-13 10 -25 23 -25 29 0 6 -14 17 -30 24 -17 7 -36 20 -43 30 -7 9 -22 20 -34
24 -13 4 -23 12 -23 17 0 5 -6 9 -14 9 -7 0 -19 7 -26 15 -7 8 -21 15 -31 15
-11 0 -19 7 -19 15 0 8 -9 15 -20 15 -11 0 -20 5 -20 11 0 6 8 8 18 5 9 -2 27
-7 40 -11 12 -3 22 -3 22 2 0 12 -164 83 -192 83 -16 0 -19 -3 -10 -9 8 -4 13
-12 13 -17 -1 -5 8 -10 19 -10 40 -2 32 -14 -9 -14 -34 0 -42 3 -37 15 4 11
-2 15 -20 15 -14 0 -23 4 -19 9 3 5 -7 11 -22 13 -33 4 -34 20 -1 30 23 6 23
6 1 7 -12 1 -25 5 -28 11 -3 5 -16 9 -28 9 -36 -1 -99 11 -112 21 -7 5 -15 7
-19 3 -12 -13 -150 -10 -190 4 -46 15 -46 16 -46 4z m315 -51 c3 -5 17 -10 31
-10 13 0 24 -5 24 -11 0 -8 -14 -9 -42 -5 -48 8 -53 10 -43 25 8 14 22 14 30
1z m-75 -10 c0 -5 -2 -10 -4 -10 -3 0 -8 5 -11 10 -3 6 -1 10 4 10 6 0 11 -4
11 -10z m606 -319 c-3 -5 -15 -7 -26 -4 -28 7 -25 13 6 13 14 0 23 -4 20 -9z
m111 -47 c-3 -3 -12 -4 -19 -1 -8 3 -5 6 6 6 11 1 17 -2 13 -5z m-2122 -154
c-3 -5 -12 -10 -18 -10 -7 0 -6 4 3 10 19 12 23 12 15 0z m2220 -10 c18 -8 17
-9 -7 -9 -16 -1 -28 4 -28 9 0 12 8 12 35 0z m-2426 -97 c-31 -35 -53 -53 -58
-47 -6 6 61 74 73 74 5 0 -1 -12 -15 -27z m-69 -110 c0 -5 -5 -15 -10 -23 -8
-12 -10 -11 -10 8 0 12 5 22 10 22 6 0 10 -3 10 -7z m3040 -653 c0 -5 -2 -10
-4 -10 -3 0 -8 5 -11 10 -3 6 -1 10 4 10 6 0 11 -4 11 -10z m35 -149 c3 -5 1
-12 -4 -15 -5 -3 -11 1 -15 9 -6 16 9 21 19 6z m-38 -633 c-3 -7 -5 -2 -5 12
0 14 2 19 5 13 2 -7 2 -19 0 -25z"/>
<path d="M3105 7220 c-3 -5 -2 -10 4 -10 5 0 13 5 16 10 3 6 2 10 -4 10 -5 0
-13 -4 -16 -10z"/>
<path d="M4290 6994 c0 -16 2 -16 24 -8 22 8 20 19 -4 21 -11 1 -20 -4 -20
-13z"/>
<path d="M4433 6926 c3 -8 1 -17 -6 -20 -7 -2 -1 -4 13 -4 14 0 34 -2 45 -6
11 -4 8 0 -7 9 -16 8 -28 20 -28 25 0 6 -5 10 -11 10 -6 0 -9 -6 -6 -14z"/>
<path d="M2205 6685 c-22 -14 -35 -25 -30 -25 12 0 75 38 75 45 0 7 -1 7 -45
-20z"/>
<path d="M1897 6313 c-4 -3 -7 -11 -7 -17 0 -6 5 -5 12 2 6 6 9 14 7 17 -3 3
-9 2 -12 -2z"/>
<path d="M2314 5370 c-6 -6 -25 -12 -42 -13 -19 -1 -32 -7 -32 -16 0 -8 -6
-11 -16 -7 -20 8 -54 -10 -54 -29 0 -20 -20 -29 -33 -16 -8 8 -6 11 8 11 15 0
16 3 7 12 -9 9 -16 8 -31 -8 -11 -10 -35 -32 -54 -48 -19 -16 -33 -35 -30 -41
2 -7 -11 -28 -29 -46 -52 -53 -59 -65 -64 -111 -3 -24 -9 -57 -15 -75 -6 -18
-8 -78 -5 -138 3 -67 2 -104 -4 -100 -6 3 -10 1 -10 -5 0 -7 6 -10 13 -7 7 3
24 -4 38 -14 13 -10 29 -19 35 -19 7 0 14 -7 18 -15 3 -8 12 -15 21 -15 9 0
21 -13 26 -30 14 -37 58 -60 131 -67 l57 -6 -8 31 c-8 25 -6 30 5 25 8 -3 20
0 27 5 21 17 177 0 177 -19 0 -12 145 -3 169 11 14 8 13 9 -6 10 -12 0 -27 9
-33 20 -9 17 -8 20 12 20 13 0 34 3 48 6 l25 5 -25 -15 c-14 -8 -19 -15 -12
-16 6 0 12 -7 12 -16 0 -11 5 -14 16 -10 23 9 91 -11 98 -29 3 -8 0 -16 -7
-16 -7 -1 2 -4 18 -8 25 -5 31 -3 37 14 6 19 6 19 7 -2 1 -12 7 -25 13 -30 16
-9 51 -10 58 -1 8 10 80 -3 80 -14 0 -14 -26 -38 -41 -38 -10 0 -10 -3 -1 -12
8 -8 15 -8 27 2 13 10 15 9 15 -8 0 -11 -7 -23 -16 -26 -10 -4 -14 -14 -11
-26 8 -30 -11 -35 -33 -8 l-19 23 -1 -37 c0 -20 5 -38 11 -40 5 -2 12 -18 15
-35 5 -29 2 -34 -31 -47 -31 -13 -35 -18 -23 -29 30 -30 56 -38 72 -21 9 8 16
24 16 34 0 10 5 22 10 25 6 3 10 15 10 26 0 11 7 19 18 19 13 0 20 14 29 51 7
28 18 58 25 67 14 16 16 53 21 289 3 116 7 146 20 161 9 10 17 26 17 35 0 9 7
17 15 17 8 0 15 5 15 10 0 6 -6 10 -14 10 -11 0 -13 10 -9 39 9 68 -36 161
-71 148 -8 -3 -20 0 -26 8 -6 8 -17 12 -24 9 -8 -3 -16 2 -19 10 -3 8 -33 22
-66 32 -34 9 -61 21 -61 26 0 5 -6 8 -12 7 -7 -1 -35 7 -61 19 -27 12 -60 22
-74 22 -15 0 -49 6 -77 14 -104 30 -125 33 -170 32 -28 -1 -48 4 -51 11 -2 7
-11 10 -19 7 -8 -3 -17 -1 -21 5 -8 14 -18 14 -31 1z m-34 -241 c9 -16 18 -19
36 -15 14 4 24 2 24 -4 0 -6 8 -5 20 2 14 9 23 10 28 3 4 -5 28 -10 54 -10 31
0 48 -4 48 -12 0 -7 16 -15 36 -19 33 -6 35 -8 18 -18 -17 -9 -15 -11 16 -17
27 -5 20 -7 -32 -8 -37 0 -70 -6 -73 -11 -4 -6 -26 -9 -51 -7 -24 2 -44 0 -44
-4 0 -3 -14 -12 -31 -19 -26 -11 -36 -10 -66 4 -35 16 -35 16 -62 -10 -32 -33
-68 -47 -98 -39 -24 6 -32 35 -10 35 8 0 7 3 -3 10 -12 7 -9 13 13 30 15 12
27 29 27 38 0 18 53 47 69 38 5 -4 12 -2 16 4 4 6 11 8 16 5 5 -4 9 1 9 9 0 9
-6 16 -12 17 -7 0 -4 4 7 9 30 13 33 12 45 -11z m185 -189 c-3 -5 -15 -10 -26
-10 -11 0 -17 5 -14 10 3 6 15 10 26 10 11 0 17 -4 14 -10z m-31 -232 c17 -29
23 -49 16 -53 -5 -3 -10 1 -10 10 0 9 -15 22 -34 30 -38 16 -54 48 -35 71 15
18 25 10 63 -58z m288 40 c-7 -7 -12 -8 -12 -2 0 6 3 14 7 17 3 4 9 5 12 2 2
-3 -1 -11 -7 -17z m-319 -85 c-7 -2 -19 -2 -25 0 -7 3 -2 5 12 5 14 0 19 -2
13 -5z m150 0 c-7 -2 -19 -2 -25 0 -7 3 -2 5 12 5 14 0 19 -2 13 -5z m157 2
c0 -11 -40 -24 -57 -18 -16 6 -15 8 7 14 31 9 50 10 50 4z"/>
<path d="M2166 5018 c-8 -24 -3 -49 8 -45 15 5 20 57 6 57 -6 0 -12 -6 -14
-12z"/>
<path d="M4000 5309 c0 -6 -15 -10 -32 -8 -18 1 -40 -1 -48 -4 -22 -8 -120
-20 -157 -19 -17 0 -34 -5 -37 -13 -2 -7 -24 -16 -47 -20 -44 -8 -51 -10 -107
-39 -18 -10 -49 -20 -69 -22 -45 -6 -49 -9 -33 -29 8 -10 9 -15 1 -15 -6 0
-11 -9 -11 -19 0 -11 -6 -21 -12 -24 -10 -3 -10 -7 1 -20 9 -11 10 -17 2 -17
-6 0 -11 -7 -11 -16 0 -8 -7 -22 -15 -31 -24 -23 -14 -47 23 -58 30 -9 33 -13
28 -37 -3 -16 -9 -41 -12 -57 -8 -38 24 -104 77 -159 l38 -41 21 27 c20 27 20
27 35 7 12 -15 18 -17 23 -8 6 9 17 10 42 3 30 -9 110 -4 110 7 0 2 -16 19
-35 38 -33 34 -34 36 -17 56 23 28 91 71 101 65 5 -3 6 -17 3 -31 -10 -53 49
-150 101 -163 74 -19 158 25 171 91 6 31 32 67 48 67 5 0 7 -4 4 -9 -4 -5 7
-12 24 -16 21 -5 30 -13 30 -26 0 -15 7 -19 32 -19 40 0 28 -12 -36 -36 -27
-10 -44 -20 -38 -22 6 -2 20 2 31 8 12 6 46 11 76 11 67 1 72 17 18 54 -21 14
-41 25 -45 25 -9 0 -43 26 -72 56 -12 12 -31 24 -44 28 -12 4 -30 16 -40 26
-10 10 -29 21 -42 23 -83 16 -110 37 -47 37 72 0 225 -58 320 -121 33 -22 61
-38 64 -36 18 18 -252 177 -300 177 -8 0 -42 7 -74 15 -68 17 -204 25 -250 14
-18 -4 -33 -5 -33 -2 0 7 55 52 64 53 6 0 20 10 33 22 13 12 34 23 46 23 13 1
30 5 38 10 7 5 32 12 54 15 24 4 39 11 38 18 -2 7 4 12 12 12 8 0 15 -4 15 -9
0 -6 22 0 49 12 44 20 50 26 56 60 5 27 11 37 21 33 7 -3 16 -1 19 5 7 11 -34
29 -52 22 -6 -3 -23 3 -37 12 -24 16 -28 16 -52 0 -19 -12 -29 -14 -37 -6 -8
8 -6 11 7 11 9 0 14 5 11 10 -8 13 -45 13 -45 -1z m-343 -335 c-3 -3 -12 -4
-19 -1 -8 3 -5 6 6 6 11 1 17 -2 13 -5z m-39 -184 c-14 -22 -24 -19 -15 5 4 8
11 15 17 15 6 0 6 -7 -2 -20z m-38 -54 c0 -3 -4 -8 -10 -11 -5 -3 -10 -1 -10
4 0 6 5 11 10 11 6 0 10 -2 10 -4z m512 -8 c-9 -9 -15 -9 -24 0 -9 9 -7 12 12
12 19 0 21 -3 12 -12z"/>
<path d="M3728 4663 c7 -3 16 -2 19 1 4 3 -2 6 -13 5 -11 0 -14 -3 -6 -6z"/>
<path d="M5284 4637 c-14 -19 -39 -64 -55 -102 -28 -65 -29 -71 -17 -123 l12
-55 14 51 c8 29 18 52 23 52 5 0 9 9 9 20 0 11 3 20 8 20 12 0 44 90 39 110
-3 11 -1 23 4 26 12 7 12 34 -1 34 -5 0 -21 -15 -36 -33z"/>
<path d="M5119 4223 c-1 -47 -6 -106 -13 -138 -5 -26 -5 -27 3 -5 5 14 9 19
10 13 1 -7 10 -13 21 -13 16 0 20 7 20 36 0 73 -39 176 -41 107z"/>
<path d="M2785 4143 c-24 -84 -28 -92 -32 -65 -5 26 -23 20 -23 -8 0 -20 -49
-100 -62 -100 -4 0 -8 -5 -8 -11 0 -7 -16 -27 -35 -46 -19 -19 -35 -38 -35
-43 0 -6 -4 -10 -9 -10 -5 0 -12 -8 -15 -17 -10 -29 -75 -98 -91 -95 -20 4
-29 -17 -11 -24 25 -9 19 -24 -9 -24 -14 0 -25 5 -25 10 0 6 -7 10 -15 10 -9
0 -15 -9 -15 -22 0 -19 -2 -20 -10 -8 -8 13 -12 12 -24 -6 -13 -18 -21 -19
-73 -13 -35 4 -63 2 -71 -4 -10 -8 -14 -5 -19 11 -3 13 -13 22 -25 22 -21 0
-22 -19 -3 -62 9 -23 -21 -24 -49 -3 -25 19 -50 19 -66 0 -11 -13 -8 -15 15
-15 16 0 25 -3 21 -7 -15 -15 -89 -1 -107 20 -16 20 -18 21 -24 5 -7 -19 -35
-25 -35 -9 0 5 -9 13 -20 16 -16 5 -18 10 -9 26 5 11 14 17 20 14 5 -4 9 -1 9
4 0 6 -6 11 -14 11 -9 0 -17 15 -21 40 -4 22 -11 40 -16 40 -5 0 -9 9 -9 19 0
10 -6 21 -13 24 -10 4 -13 27 -10 94 4 88 4 88 -13 55 -13 -25 -20 -30 -30
-21 -20 17 -59 -24 -59 -64 -2 -81 -17 -254 -24 -277 -5 -14 -14 -45 -21 -70
-7 -25 -16 -55 -20 -66 -5 -13 -4 -26 3 -33 8 -8 6 -14 -6 -23 -13 -10 -19
-32 -22 -81 -2 -37 -10 -77 -16 -89 -28 -53 -12 -294 26 -373 13 -27 26 -66
28 -86 3 -19 19 -55 35 -80 16 -24 35 -64 42 -89 7 -25 18 -57 26 -72 8 -14
14 -36 14 -47 0 -13 9 -25 24 -30 30 -12 42 -42 22 -57 -21 -15 -20 -24 3 -24
23 0 36 -28 21 -45 -7 -9 -6 -16 5 -25 18 -15 20 -30 2 -30 -7 0 -17 -20 -23
-45 -9 -41 -9 -45 7 -40 22 7 28 -3 22 -38 -4 -18 -12 -27 -24 -27 -13 0 -17
-5 -12 -16 5 -14 2 -16 -21 -10 -15 4 -32 3 -39 -1 -7 -5 4 -10 28 -13 22 -3
39 -10 38 -17 -1 -6 2 -25 7 -42 5 -19 5 -29 -1 -26 -5 4 -9 -2 -10 -12 0 -10
-3 -13 -6 -6 -3 9 -10 10 -24 3 -10 -6 -19 -8 -19 -4 0 3 -7 1 -15 -6 -8 -7
-12 -16 -10 -21 7 -10 -31 -16 -144 -24 -80 -5 -301 -46 -436 -79 -33 -9 -105
-23 -160 -32 -303 -51 -741 -261 -982 -472 l-63 -54 0 -654 0 -654 3595 0
3595 0 0 640 c0 487 -3 640 -12 640 -12 0 -208 108 -218 120 -11 13 -217 100
-238 100 -11 0 -24 5 -27 10 -3 6 -17 10 -30 10 -13 0 -50 7 -82 16 -32 9 -78
20 -103 24 -245 43 -360 78 -582 176 -112 50 -283 82 -424 79 -76 -2 -116 1
-122 9 -4 6 -21 43 -36 83 -19 50 -39 82 -66 107 -79 71 -122 79 -285 53 l-79
-13 3 -54 c4 -89 20 -142 58 -198 25 -37 33 -56 26 -63 -8 -8 -5 -17 9 -31 11
-11 17 -26 14 -35 -4 -8 -1 -42 6 -73 10 -48 9 -61 -2 -75 -7 -9 -15 -37 -16
-63 -3 -53 -8 -79 -19 -104 -4 -10 -4 -25 -1 -34 5 -14 -14 -44 -28 -44 -3 0
-6 12 -6 28 l-1 27 -14 -25 c-8 -14 -15 -36 -15 -50 -1 -23 -2 -24 -11 -5 -7
16 -9 14 -6 -12 2 -18 1 -31 -1 -28 -5 5 -52 -62 -52 -75 0 -5 -9 -14 -20 -20
-11 -6 -20 -17 -20 -25 0 -8 -7 -15 -15 -15 -8 0 -22 -14 -30 -31 -12 -22 -21
-28 -35 -24 -13 4 -20 0 -25 -15 -4 -13 -18 -23 -36 -27 -16 -3 -29 -12 -29
-19 0 -17 -40 -34 -81 -34 -26 0 -29 -3 -24 -21 5 -14 3 -19 -3 -15 -6 3 -13
2 -16 -3 -3 -5 -15 -7 -25 -4 -15 4 -20 -1 -23 -19 -3 -26 -33 -32 -33 -6 0 9
-4 20 -8 24 -4 4 -7 3 -7 -3 0 -6 -20 -14 -44 -17 -37 -6 -46 -12 -54 -36 -9
-25 -41 -42 -79 -41 -5 0 -12 -7 -16 -15 -4 -8 -15 -14 -24 -14 -9 0 -26 -12
-39 -28 -19 -21 -24 -23 -24 -9 0 12 -8 17 -29 17 -23 0 -31 5 -34 23 l-4 22
-8 -22 c-4 -13 -11 -23 -15 -23 -4 0 -11 -10 -15 -23 -6 -18 -10 -11 -22 36
-11 40 -18 55 -24 45 -5 -7 -9 -20 -9 -29 0 -8 -11 -25 -25 -37 l-25 -22 0 28
c0 20 3 23 10 12 15 -24 23 -3 11 31 -22 65 -9 89 49 94 3 0 20 15 38 32 36
37 62 43 62 13 0 -11 -7 -20 -15 -20 -8 0 -15 -4 -15 -10 0 -6 10 -5 25 2 14
6 25 20 25 31 0 13 5 17 15 13 8 -3 19 3 25 12 8 15 11 15 20 2 8 -12 10 -11
10 8 0 12 6 22 13 22 20 0 55 41 60 70 4 25 4 25 12 3 4 -13 12 -20 17 -17 5
3 7 13 4 21 -4 10 -1 13 13 8 14 -4 20 0 25 18 3 12 21 41 40 62 34 39 35 40
50 20 16 -19 16 -19 10 8 -5 20 -2 27 9 27 19 0 30 27 14 34 -7 2 2 5 18 6 18
2 23 4 13 7 -10 2 -18 11 -18 19 0 8 -4 14 -10 14 -20 0 -9 18 15 24 24 6 30
18 39 81 6 41 7 42 14 23 10 -25 33 -7 25 20 -3 12 -12 22 -19 22 -8 0 -14 5
-14 10 0 6 8 10 18 10 10 0 23 5 30 12 7 7 12 9 12 5 0 -4 9 -3 20 3 24 13 27
40 4 40 -13 0 -12 5 6 31 27 36 19 52 -9 18 -31 -38 -33 -18 -6 66 17 53 21
81 14 86 -7 4 -5 9 6 13 11 4 14 12 10 26 -8 24 15 50 44 50 29 0 26 17 -4 24
-34 9 -22 36 16 36 16 0 29 5 29 11 0 7 -10 9 -25 5 -17 -4 -25 -2 -25 7 0 9
9 12 28 9 26 -3 29 -1 30 27 0 17 -3 33 -9 36 -5 4 -2 17 7 30 9 13 13 28 10
34 -3 5 1 11 9 15 23 8 18 25 -10 36 -30 11 -33 20 -5 13 14 -4 20 0 22 13 0
11 2 25 2 32 1 8 9 19 19 26 11 9 17 27 17 49 0 31 -3 35 -17 30 -17 -7 -17
-6 0 11 9 10 22 27 28 38 6 11 17 17 25 14 11 -4 13 1 10 19 -5 29 -6 29 30
10 27 -14 28 -15 6 -15 -13 0 -20 -4 -17 -10 4 -6 1 -25 -5 -44 -11 -36 -4
-69 14 -63 6 2 9 12 8 23 -2 10 4 24 15 31 10 8 18 17 17 21 0 4 7 6 18 4 10
-2 18 2 18 8 0 6 7 19 16 27 13 14 17 14 25 2 6 -10 9 -10 9 -1 0 6 10 12 22
12 39 0 56 26 48 70 -4 22 -3 40 1 40 5 0 9 12 9 26 0 14 14 45 30 70 17 24
27 44 21 44 -5 0 -8 12 -7 28 2 15 4 35 5 44 0 9 17 26 37 39 38 23 33 39 -13
39 -28 0 -30 16 -4 25 11 3 21 18 23 35 5 36 2 37 -24 8 -14 -17 -21 -19 -25
-10 -4 10 -8 10 -19 1 -22 -18 -29 -1 -26 63 2 35 32 27 32 -8 0 -33 16 -30
32 6 13 29 28 40 28 20 0 -21 18 -9 22 15 6 27 -1 32 -19 14 -9 -9 -11 -6 -7
12 5 24 5 24 -5 2 -6 -13 -17 -23 -26 -23 -18 0 -20 21 -3 38 8 8 8 12 1 12
-6 0 -14 7 -17 16 -5 12 -2 15 10 10 13 -5 15 -1 10 22 -3 15 -8 43 -12 64 -4
24 -12 38 -25 41 -10 3 -19 1 -19 -5 0 -5 -4 -7 -9 -4 -5 4 -7 -3 -4 -14 7
-28 -11 -25 -31 5 -22 33 -33 32 -33 -4 0 -15 5 -28 11 -28 39 1 56 -5 56 -18
0 -18 -5 -18 -30 -5 -12 6 -21 7 -25 0 -3 -5 -12 -7 -19 -4 -8 3 -16 -5 -20
-20 -9 -37 -30 -33 -23 4 5 22 3 28 -7 24 -8 -3 -16 2 -19 13 -3 12 -5 10 -6
-9 -1 -21 -7 -28 -31 -33 -36 -8 -38 -17 -8 -30 12 -6 25 -21 29 -35 3 -14 11
-24 17 -22 19 4 14 -35 -5 -43 -12 -4 -24 2 -38 19 -22 28 -37 34 -34 14 5
-43 -2 -58 -26 -58 -14 0 -25 5 -25 10 0 20 -18 9 -24 -15 -6 -22 -9 -24 -26
-12 -17 10 -22 9 -29 -1 -4 -7 -17 -14 -29 -15 -11 0 -20 -5 -19 -10 1 -5 -4
-12 -10 -14 -7 -3 -13 0 -13 6 0 6 -5 11 -11 11 -8 0 -8 -4 0 -13 8 -10 7 -17
-1 -25 -13 -13 -12 -101 3 -118 6 -7 3 -17 -10 -28 -18 -16 -19 -15 -23 35 -3
28 -10 54 -17 58 -8 6 -8 18 3 48 13 36 13 42 0 47 -11 4 -12 10 -5 24 7 14 3
25 -20 51 -30 35 -32 35 -30 -14 1 -16 -3 -37 -9 -45 -7 -12 -11 -8 -16 19
l-7 33 -13 -23 -13 -24 -1 23 c0 12 -4 22 -10 22 -5 0 -10 -10 -10 -22 0 -21
-1 -21 -13 -3 -13 17 -15 17 -35 -3 -12 -12 -19 -28 -16 -37 4 -8 -1 -17 -9
-21 -10 -3 -19 -24 -22 -49 -5 -32 -13 -45 -31 -54 -20 -9 -26 -8 -30 4 -3 8
-4 20 -1 27 2 7 -4 24 -14 37 -11 13 -19 32 -19 42 0 11 -3 19 -7 19 -11 0 -7
90 6 134 5 22 6 36 0 36 -5 0 -9 7 -9 15 0 8 5 15 10 15 6 0 10 -7 10 -15 0
-14 38 -41 46 -32 3 3 -2 12 -11 20 -21 21 -19 26 11 37 24 10 25 13 19 60 -6
41 -4 50 8 50 12 0 14 6 7 29 -4 15 -4 35 1 42 5 8 7 39 4 69 -3 38 -2 50 5
40 8 -12 10 -11 10 8 0 25 18 30 26 7 8 -20 24 -19 24 1 0 8 5 12 10 9 7 -4 8
3 4 21 -7 29 -40 63 -61 64 -6 0 -26 12 -43 26 -22 19 -34 24 -42 16 -7 -7
-17 -2 -34 18 -13 15 -24 33 -24 39 0 15 -7 14 -41 -6 -28 -17 -32 -17 -60 -1
-16 10 -36 15 -44 12 -8 -4 -15 -1 -15 5 0 5 -9 15 -21 21 -19 11 -20 9 -13
-27 7 -44 28 -81 57 -105 21 -16 21 -17 4 -36 -15 -16 -15 -21 -4 -30 8 -7 17
-9 20 -5 4 3 7 1 7 -5 0 -7 6 -12 13 -12 8 0 28 -7 45 -16 18 -8 44 -15 60
-14 57 4 65 -3 17 -15 -27 -7 -43 -14 -34 -14 25 -2 116 -97 104 -109 -4 -4
-15 3 -25 16 -20 24 -49 21 -51 -7 0 -13 -2 -13 -6 -1 -4 8 -12 21 -20 28 -10
11 -11 17 -2 28 9 11 7 14 -10 14 -12 0 -20 4 -17 9 6 10 -30 22 -38 13 -3 -3
-6 -16 -6 -29 0 -21 -2 -22 -20 -11 -11 7 -20 21 -20 30 0 10 -7 18 -15 18
-22 0 -65 22 -60 31 3 4 1 10 -5 14 -5 3 -10 -1 -10 -9 0 -20 -5 -20 -35 0
-23 15 -25 15 -25 0 0 -9 5 -16 10 -16 6 0 10 -9 10 -20 0 -16 6 -20 32 -18
51 4 49 -47 -2 -55 -13 -2 -26 -9 -28 -15 -2 -7 -12 -12 -23 -12 -10 0 -19 -3
-19 -8 0 -4 -39 -7 -86 -6 -62 0 -88 5 -95 15 -6 10 -9 10 -9 2 0 -7 -7 -13
-15 -13 -8 0 -15 -6 -16 -12 0 -7 -5 -3 -12 10 -7 16 -17 22 -29 19 -13 -4
-20 2 -24 20 -9 35 13 54 32 29 17 -24 20 -21 28 24 4 26 3 30 -3 15 -9 -19
-10 -19 -10 3 -1 14 5 22 15 22 8 0 12 5 9 10 -11 17 -22 11 -35 -20 -13 -31
-35 -31 -27 1 3 10 -1 23 -9 30 -8 6 -11 15 -8 20 3 5 -2 16 -10 25 -9 8 -16
28 -16 43 0 15 -5 32 -12 39 -7 7 -9 12 -6 12 3 0 -7 14 -23 31 -35 37 -37 56
-6 61 17 2 22 10 23 33 0 17 -4 33 -9 36 -5 4 -1 10 11 13 11 4 22 16 25 26 3
14 14 20 31 20 15 0 34 4 44 9 74 38 91 38 93 -2 1 -17 2 -18 6 -4 2 9 11 17
19 17 8 0 13 -4 10 -8 -2 -4 2 -22 11 -39 13 -29 17 -30 45 -22 17 4 35 6 41
2 17 -10 25 18 14 53 -6 18 -18 36 -27 39 -9 3 -26 30 -39 59 -12 30 -31 64
-42 77 -10 12 -19 35 -19 51 0 15 -4 28 -10 28 -5 0 -10 6 -10 14 0 7 -22 33
-49 57 -26 24 -51 54 -55 67 -5 13 -15 22 -27 22 -23 0 -21 -11 18 -100 14
-30 27 -78 30 -106 5 -47 3 -52 -30 -88 -36 -38 -64 -44 -77 -16 -22 47 -30
56 -58 64 -39 11 -114 -8 -139 -36 -10 -11 -28 -24 -40 -29 -15 -6 -23 -17
-23 -33 0 -39 -11 -56 -35 -56 -13 0 -25 -5 -27 -12 -3 -7 -10 -8 -21 -2 -15
9 -15 12 -2 38 8 16 15 34 15 41 0 15 -54 45 -80 45 -10 0 -23 7 -30 15 -7 8
-23 15 -37 15 -17 0 -46 22 -97 75 l-73 74 -52 -19 c-42 -16 -51 -17 -51 -6 0
8 8 17 18 19 16 4 16 5 0 6 -27 2 -19 32 12 44 10 4 8 6 -7 6 -37 2 -48 -36
-29 -101 5 -16 5 -35 2 -45 -6 -15 -8 -14 -24 3 -49 54 -47 95 7 154 16 18 28
37 25 42 -3 4 2 8 10 8 8 0 19 6 23 14 4 8 17 15 28 18 12 2 20 11 20 23 0 11
4 23 10 27 18 13 -6 22 -25 10 -14 -8 -27 -9 -45 -2 -41 16 -43 14 -60 -47z
m22 15 c-3 -8 -6 -5 -6 6 -1 11 2 17 5 13 3 -3 4 -12 1 -19z m-59 -238 c-15
-24 -19 -21 -11 8 3 12 9 19 14 16 5 -3 3 -14 -3 -24z m694 -213 c1 -7 -2 -27
-6 -46 -7 -27 -5 -36 8 -43 20 -11 21 -28 1 -28 -16 0 -21 -26 -5 -32 5 -2 6
-9 1 -17 -11 -17 -38 -8 -80 28 -21 18 -40 27 -50 23 -14 -5 -14 -4 -1 14 8
10 21 23 28 27 15 10 16 37 2 37 -12 0 -5 57 11 101 l10 26 39 -40 c22 -21 41
-44 42 -50z m-1292 -397 c0 -5 -12 -10 -26 -10 -14 0 -23 4 -19 10 3 6 15 10
26 10 10 0 19 -4 19 -10z m51 -83 c10 -48 10 -60 0 -67 -10 -6 -10 -12 -2 -29
11 -19 9 -21 -14 -21 -16 0 -25 6 -25 15 0 8 -4 15 -9 15 -5 0 -11 18 -15 39
-3 21 -13 41 -21 45 -9 3 -15 18 -15 36 0 29 13 40 24 21 8 -12 56 -1 57 13 1
14 4 4 20 -67z m1419 -43 c0 -8 -4 -14 -10 -14 -5 0 -10 9 -10 21 0 11 5 17
10 14 6 -3 10 -13 10 -21z m542 9 c19 -17 24 -43 8 -43 -11 0 -50 40 -50 52 0
13 22 9 42 -9z m68 -42 c0 -6 -4 -12 -8 -15 -5 -3 -9 1 -9 9 0 8 4 15 9 15 4
0 8 -4 8 -9z m-2526 -80 c3 -4 -1 -17 -9 -27 -14 -18 -14 -18 -15 9 0 26 13
36 24 18z m1900 0 c3 -4 45 -6 93 -3 131 7 193 5 211 -10 11 -9 14 -10 8 -1
-4 9 -2 11 7 7 8 -3 19 -16 25 -30 7 -13 18 -25 27 -25 8 -1 21 -2 27 -3 7 0
19 -13 26 -28 7 -15 21 -30 32 -33 10 -3 22 -15 25 -26 4 -10 13 -19 21 -19 8
0 14 -9 14 -20 0 -11 -6 -20 -14 -20 -21 0 -25 -32 -8 -53 14 -15 13 -19 -4
-32 -19 -15 -19 -15 0 -30 11 -9 16 -20 12 -31 -4 -9 -9 -14 -13 -10 -3 3 -15
-1 -25 -11 -13 -11 -18 -12 -18 -3 0 10 -3 10 -15 0 -8 -7 -15 -21 -15 -31 0
-10 -4 -21 -10 -24 -5 -3 -10 -16 -10 -29 0 -15 -9 -27 -26 -35 -21 -9 -24
-14 -14 -26 9 -11 7 -16 -9 -24 -22 -12 -23 -50 -2 -75 10 -12 9 -18 -7 -34
-11 -11 -21 -25 -24 -32 -2 -7 -21 -15 -43 -19 -21 -3 -40 -12 -43 -20 -3 -8
0 -11 5 -8 5 3 9 -2 10 -12 1 -13 -10 -22 -36 -30 -21 -6 -46 -11 -54 -11 -9
0 -24 -11 -32 -24 -13 -20 -14 -29 -5 -46 10 -18 9 -22 -9 -27 -12 -3 -21 -11
-21 -17 0 -7 -15 -11 -37 -10 -24 1 -28 0 -10 -3 35 -6 25 -23 -14 -23 -24 0
-32 6 -40 30 -11 31 -23 38 -34 20 -3 -5 2 -10 11 -10 10 0 14 -3 10 -7 -4 -5
-13 -8 -18 -8 -6 0 -13 -6 -15 -12 -3 -7 3 -13 13 -13 16 0 16 -1 -2 -15 -23
-18 -40 -19 -27 -2 5 6 6 26 2 42 -5 24 -7 26 -8 7 -1 -24 -8 -29 -58 -36 -46
-6 -56 -15 -50 -45 7 -33 -4 -54 -25 -46 -10 4 -17 -1 -21 -17 -5 -18 -9 -20
-19 -10 -6 6 -29 12 -50 12 -21 0 -38 5 -38 11 0 5 -4 8 -10 4 -5 -3 -7 -12
-4 -20 3 -8 -4 -19 -18 -26 -13 -6 -26 -17 -30 -23 -4 -6 -11 -7 -15 -2 -4 5
-2 11 5 13 6 3 12 11 12 19 0 9 -4 13 -9 9 -5 -3 -13 -1 -16 5 -5 8 -11 8 -20
0 -8 -7 -19 -9 -25 -5 -5 3 -13 -1 -16 -9 -7 -17 -24 -22 -24 -7 0 5 6 16 13
23 15 14 8 50 -8 49 -14 -1 -26 47 -14 55 5 3 7 10 3 15 -4 6 -10 6 -18 0 -7
-6 -16 -8 -19 -4 -4 3 -7 -1 -7 -10 0 -9 -4 -17 -10 -17 -19 0 -10 35 16 63
14 15 23 34 20 42 -3 8 2 35 11 60 12 37 18 44 29 34 11 -9 14 -7 14 10 0 12
-4 19 -10 16 -5 -3 -10 -2 -10 4 0 5 12 9 28 8 18 -1 27 3 27 13 0 10 18 19
55 27 77 16 90 16 90 -4 0 -15 2 -16 10 -3 5 8 17 15 27 15 12 0 17 6 15 18
-2 9 2 17 8 17 5 0 10 10 10 23 0 13 6 29 12 35 13 13 16 10 -81 90 -22 18
-38 38 -36 45 3 6 -7 20 -21 30 -23 17 -27 18 -49 3 -24 -16 -25 -15 -25 3 0
30 -11 51 -26 51 -8 0 -14 5 -14 11 0 5 -5 7 -10 4 -6 -3 -13 1 -16 9 -3 9
-12 16 -19 16 -8 0 -22 11 -33 25 -11 14 -34 28 -51 31 -42 9 -39 24 4 24 26
0 33 3 29 15 -4 9 -19 15 -40 15 -27 0 -34 4 -34 20 0 16 7 20 35 20 24 0 35
5 35 14 0 21 123 26 172 7 36 -13 38 -13 57 10 12 14 20 18 21 11 0 -7 4 -11
9 -8 5 3 7 14 5 24 -7 24 19 57 36 47 11 -7 9 -10 -6 -17 -13 -6 -10 -7 11 -2
17 3 37 12 46 20 8 8 23 14 33 14 9 0 19 7 22 15 4 8 12 15 20 15 7 0 28 9 46
20 34 20 93 27 102 11z m-1344 -22 c-7 -11 -14 -18 -17 -15 -8 8 5 36 17 36 7
0 7 -6 0 -21z m2790 1 c0 -5 -2 -10 -4 -10 -3 0 -8 5 -11 10 -3 6 -1 10 4 10
6 0 11 -4 11 -10z m8 -51 c-18 -12 -23 8 -6 28 12 15 13 15 16 -2 2 -10 -2
-21 -10 -26z m-48 0 c0 -6 -4 -7 -10 -4 -5 3 -10 11 -10 16 0 6 5 7 10 4 6 -3
10 -11 10 -16z m-45 -39 c-14 -27 -45 -42 -45 -22 0 14 37 47 58 51 1 1 -4
-12 -13 -29z m0 -50 c3 -5 1 -10 -4 -10 -6 0 -11 5 -11 10 0 6 2 10 4 10 3 0
8 -4 11 -10z m-775 -110 c0 -6 4 -9 9 -6 5 3 12 -6 15 -19 4 -14 10 -23 15
-21 5 3 6 -15 3 -40 -3 -31 -1 -49 8 -54 9 -6 10 -15 3 -36 l-10 -29 -11 35
c-8 27 -10 30 -11 12 -1 -13 -6 -32 -12 -44 -10 -19 -11 -19 -23 -1 -8 10 -13
51 -14 96 0 43 -4 97 -7 120 l-7 42 21 -22 c12 -12 21 -27 21 -33z m530 10 c0
-5 -4 -10 -10 -10 -5 0 -10 5 -10 10 0 6 5 10 10 10 6 0 10 -4 10 -10z m35 0
c-3 -5 -10 -10 -16 -10 -5 0 -9 5 -9 10 0 6 7 10 16 10 8 0 12 -4 9 -10z m135
-5 c7 -9 8 -15 2 -15 -5 0 -12 7 -16 15 -3 8 -4 15 -2 15 2 0 9 -7 16 -15z
m-360 -11 c0 -8 -4 -12 -10 -9 -5 3 -10 10 -10 16 0 5 5 9 10 9 6 0 10 -7 10
-16z m388 -45 c-3 -8 -7 -3 -11 10 -4 17 -3 21 5 13 5 -5 8 -16 6 -23z m-498
-26 c0 -13 -3 -13 -15 -3 -8 7 -12 16 -9 21 8 13 24 1 24 -18z m120 -13 c0
-18 -22 -22 -37 -7 -21 21 -8 40 18 27 10 -6 19 -15 19 -20z m200 20 c0 -5 -2
-10 -4 -10 -3 0 -8 5 -11 10 -3 6 -1 10 4 10 6 0 11 -4 11 -10z m380 -20 c0
-5 -15 -9 -32 -9 l-33 1 30 8 c17 4 31 8 33 9 1 0 2 -3 2 -9z m-2138 -42 c-7
-7 -12 -8 -12 -2 0 6 3 14 7 17 3 4 9 5 12 2 2 -3 -1 -11 -7 -17z m1388 18 c0
-3 -4 -8 -10 -11 -5 -3 -10 -1 -10 4 0 6 5 11 10 11 6 0 10 -2 10 -4z m543
-36 c-3 -11 -9 -20 -14 -20 -14 0 -11 28 4 33 6 3 13 6 14 6 0 1 -1 -8 -4 -19z
m107 -25 c0 -14 -4 -25 -10 -25 -5 0 -10 11 -10 25 0 14 5 25 10 25 6 0 10
-11 10 -25z m-2024 -11 c-9 -9 -20 -14 -23 -10 -4 3 2 13 13 20 25 18 31 12
10 -10z m1510 10 c-3 -9 -6 -20 -6 -25 0 -5 -10 -9 -22 -9 -13 0 -18 4 -12 8
6 4 13 15 17 25 3 9 11 17 18 17 6 0 8 -7 5 -16z m231 -49 c-13 -14 -31 -10
-22 5 3 4 0 10 -7 12 -6 2 -8 10 -4 17 6 9 12 9 26 -4 15 -13 16 -20 7 -30z
m-317 20 c11 -13 10 -14 -4 -9 -9 3 -16 10 -16 15 0 13 6 11 20 -6z m517 -1
c2 -7 -6 -10 -21 -7 -14 3 -23 10 -20 15 8 12 36 6 41 -8z m-267 -26 c0 -7 -5
-20 -10 -28 -8 -12 -10 -9 -10 13 0 15 5 27 10 27 6 0 10 -6 10 -12z m230 -13
c0 -8 -7 -15 -15 -15 -16 0 -20 12 -8 23 11 12 23 8 23 -8z m-680 -15 c0 -5
-2 -10 -4 -10 -3 0 -8 5 -11 10 -3 6 -1 10 4 10 6 0 11 -4 11 -10z m161 -3
c-1 -12 -15 -9 -19 4 -3 6 1 10 8 8 6 -3 11 -8 11 -12z m447 -5 c2 -7 -2 -10
-12 -6 -9 3 -16 11 -16 16 0 13 23 5 28 -10z m-338 -32 c0 -5 -4 -10 -10 -10
-5 0 -10 5 -10 10 0 6 5 10 10 10 6 0 10 -4 10 -10z m436 -20 c8 0 14 -5 14
-10 0 -6 -11 -8 -25 -4 -17 4 -25 2 -25 -7 0 -10 -3 -10 -11 -2 -15 15 -1 36
18 29 8 -3 21 -6 29 -6z m-839 -22 c-3 -8 -6 -5 -6 6 -1 11 2 17 5 13 3 -3 4
-12 1 -19z m636 -3 c-3 -9 -8 -14 -10 -11 -3 3 -2 9 2 15 9 16 15 13 8 -4z
m-1663 -14 c0 -6 -4 -13 -10 -16 -5 -3 -10 1 -10 9 0 9 5 16 10 16 6 0 10 -4
10 -9z m1440 -21 c0 -5 -2 -10 -4 -10 -3 0 -8 5 -11 10 -3 6 -1 10 4 10 6 0
11 -4 11 -10z m-1295 -10 c3 -6 -1 -7 -9 -4 -18 7 -21 14 -7 14 6 0 13 -4 16
-10z m905 0 c0 -5 -4 -10 -10 -10 -5 0 -10 5 -10 10 0 6 5 10 10 10 6 0 10 -4
10 -10z m-1011 -26 c16 -37 7 -41 -28 -13 -36 29 -38 39 -8 39 16 0 28 -9 36
-26z m1073 -14 c19 0 29 -8 38 -30 7 -17 21 -35 31 -41 27 -14 23 -29 -6 -29
-14 0 -25 6 -25 14 0 22 -49 68 -68 64 -13 -4 -17 2 -19 26 -2 28 -1 29 11 14
7 -10 25 -18 38 -18z m663 20 c3 -5 -1 -10 -9 -10 -9 0 -16 5 -16 10 0 6 4 10
9 10 6 0 13 -4 16 -10z m145 -3 c0 -7 -7 -22 -15 -33 -16 -20 -16 -18 0 31 5
18 15 20 15 2z m-630 -56 c-1 -13 -3 -13 -15 3 -19 26 -19 42 0 26 8 -7 15
-20 15 -29z m588 27 c-6 -18 -28 -21 -28 -4 0 9 7 16 16 16 9 0 14 -5 12 -12z
m-1021 -124 c-3 -3 -12 -4 -19 -1 -8 3 -5 6 6 6 11 1 17 -2 13 -5z m321 -86
c-6 -43 -15 -78 -20 -78 -5 0 -6 15 -3 33 5 28 10 75 14 127 1 9 4 10 10 5 6
-6 6 -39 -1 -87z m-1211 26 c-3 -3 -12 -4 -19 -1 -8 3 -5 6 6 6 11 1 17 -2 13
-5z m-277 -14 c0 -5 -5 -10 -11 -10 -5 0 -7 5 -4 10 3 6 8 10 11 10 2 0 4 -4
4 -10z m1637 -22 c-3 -8 -6 -5 -6 6 -1 11 2 17 5 13 3 -3 4 -12 1 -19z m-1392
2 c3 -5 1 -10 -4 -10 -6 0 -11 5 -11 10 0 6 2 10 4 10 3 0 8 -4 11 -10z m-115
-20 c0 -5 -2 -10 -4 -10 -3 0 -8 5 -11 10 -3 6 -1 10 4 10 6 0 11 -4 11 -10z
m816 -21 c1 -9 5 -27 9 -39 7 -20 5 -22 -18 -16 -20 5 -29 1 -37 -13 -18 -35
-12 -78 15 -99 14 -11 25 -24 25 -30 0 -6 5 -12 10 -14 7 -2 7 -14 -1 -36 -12
-36 -29 -34 -29 5 0 37 -31 84 -51 78 -18 -6 -34 26 -43 88 -3 27 -1 37 9 37
7 0 16 8 20 18 6 16 7 16 20 -1 13 -18 14 -18 23 0 5 10 7 24 5 31 -4 9 2 13
17 10 13 -1 24 -10 26 -19z m719 1 c3 -5 -1 -10 -10 -10 -9 0 -13 5 -10 10 3
6 8 10 10 10 2 0 7 -4 10 -10z m-2498 -32 c-3 -7 -5 -2 -5 12 0 14 2 19 5 13
2 -7 2 -19 0 -25z m1563 22 c0 -13 -11 -13 -30 0 -12 8 -11 10 8 10 12 0 22
-4 22 -10z m-548 -82 c-9 -9 -12 -7 -12 12 0 19 3 21 12 12 9 -9 9 -15 0 -24z
m475 -10 c-3 -8 -6 -5 -6 6 -1 11 2 17 5 13 3 -3 4 -12 1 -19z m294 -24 c-5
-33 -31 -62 -31 -35 0 6 4 11 9 11 4 0 7 12 5 27 -3 30 3 46 15 39 4 -3 5 -22
2 -42z m39 -26 c0 -19 -18 -43 -25 -36 -4 3 -2 16 5 27 12 24 20 27 20 9z
m940 2 c0 -5 -5 -10 -11 -10 -5 0 -7 5 -4 10 3 6 8 10 11 10 2 0 4 -4 4 -10z
m-570 -40 c0 -5 -4 -10 -10 -10 -5 0 -10 5 -10 10 0 6 5 10 10 10 6 0 10 -4
10 -10z m30 -20 c0 -5 -4 -10 -10 -10 -5 0 -10 5 -10 10 0 6 5 10 10 10 6 0
10 -4 10 -10z m7 -45 c-4 -8 -11 -15 -17 -15 -7 0 -7 6 0 21 13 23 26 19 17
-6z m58 -64 c3 -5 1 -12 -5 -16 -5 -3 -10 1 -10 9 0 18 6 21 15 7z m-95 -216
c0 -9 -8 -25 -19 -36 -18 -20 -18 -19 -7 16 11 36 26 47 26 20z m-190 -95 c0
-5 -8 -10 -17 -10 -15 0 -16 2 -3 10 19 12 20 12 20 0z m412 -292 c-7 -7 -12
-8 -12 -2 0 14 12 26 19 19 2 -3 -1 -11 -7 -17z m-42 -77 c0 -11 -31 -24 -39
-16 -3 3 1 10 9 15 19 12 30 12 30 1z m-100 -92 c-7 -11 -14 -18 -17 -15 -3 3
0 12 7 21 18 21 23 19 10 -6z m-270 -109 c0 -5 -7 -7 -15 -4 -8 4 -15 8 -15
10 0 2 7 4 15 4 8 0 15 -4 15 -10z m-40 -164 c0 -3 -4 -8 -10 -11 -5 -3 -10
-1 -10 4 0 6 5 11 10 11 6 0 10 -2 10 -4z"/>
<path d="M2150 3203 c0 -12 5 -25 11 -28 16 -11 17 -2 2 25 -12 24 -13 24 -13
3z"/>
<path d="M4040 2750 c0 -5 4 -10 9 -10 6 0 13 5 16 10 3 6 -1 10 -9 10 -9 0
-16 -4 -16 -10z"/>
<path d="M3257 2703 c-15 -14 -5 -41 30 -81 20 -23 42 -42 49 -42 6 0 14 -7
18 -15 6 -16 51 -21 60 -6 3 5 -1 12 -10 15 -10 4 -13 13 -9 25 3 12 0 23 -8
28 -8 4 -16 15 -19 23 -3 8 -6 0 -5 -18 0 -18 -3 -35 -6 -39 -4 -3 -7 5 -7 18
0 13 -5 31 -10 39 -8 13 -10 12 -10 -3 0 -11 -5 -17 -12 -14 -8 2 -13 19 -12
41 1 35 -9 48 -19 24 -4 -10 -6 -10 -6 0 -1 13 -14 16 -24 5z"/>
<path d="M3780 2320 c0 -5 -18 -10 -40 -10 -22 0 -40 -4 -40 -10 0 -14 58 -12
103 4 29 10 35 15 22 20 -25 9 -45 7 -45 -4z"/>
<path d="M1770 4030 c0 -5 5 -10 10 -10 6 0 10 5 10 10 0 6 -4 10 -10 10 -5 0
-10 -4 -10 -10z"/>
<path d="M5055 3630 c-3 -5 1 -10 10 -10 9 0 13 5 10 10 -3 6 -8 10 -10 10 -2
0 -7 -4 -10 -10z"/>
<path d="M3968 3623 c6 -2 18 -2 25 0 6 3 1 5 -13 5 -14 0 -19 -2 -12 -5z"/>
<path d="M3906 3582 c-2 -4 -1 -14 5 -22 7 -12 9 -10 9 8 0 23 -5 28 -14 14z"/>
<path d="M3580 3531 c0 -6 5 -13 10 -16 6 -3 10 1 10 9 0 9 -4 16 -10 16 -5 0
-10 -4 -10 -9z"/>
<path d="M3935 3530 c3 -5 8 -10 11 -10 2 0 4 5 4 10 0 6 -5 10 -11 10 -5 0
-7 -4 -4 -10z"/>
<path d="M3965 3530 c3 -5 10 -10 16 -10 5 0 9 5 9 10 0 6 -7 10 -16 10 -8 0
-12 -4 -9 -10z"/>
<path d="M3715 3480 c-3 -5 -23 -8 -44 -5 -43 5 -62 -9 -67 -50 -2 -19 3 -25
16 -25 10 0 22 -5 25 -10 5 -8 11 -7 21 1 9 7 14 8 14 1 0 -6 -5 -14 -10 -17
-6 -4 -7 -11 -4 -17 4 -7 9 -6 14 2 4 7 14 -4 24 -30 10 -24 25 -44 36 -47 26
-7 26 -33 1 -33 -14 0 -18 -5 -14 -21 4 -14 9 -17 16 -10 7 7 16 7 29 0 21
-11 38 -4 38 15 0 7 -13 26 -30 42 -16 16 -30 39 -30 52 0 22 14 30 24 13 3
-5 17 -11 31 -13 20 -4 28 1 40 25 14 28 14 32 -5 49 -10 10 -24 18 -30 18 -5
0 -10 6 -10 14 0 13 -14 23 -34 24 -5 0 -13 7 -18 16 -10 18 -24 21 -33 6z
m-10 -90 c3 -5 1 -10 -4 -10 -6 0 -11 5 -11 10 0 6 2 10 4 10 3 0 8 -4 11 -10z"/>
<path d="M3990 3447 c0 -10 -6 -17 -14 -15 -8 2 -14 -1 -13 -7 1 -5 8 -9 15
-7 7 2 15 -5 19 -15 7 -20 22 -33 38 -33 6 0 4 4 -4 9 -10 7 -11 13 -2 30 10
18 9 22 -6 28 -10 4 -21 11 -25 17 -5 7 -8 4 -8 -7z"/>
<path d="M4954 3408 c-4 -13 -2 -24 4 -26 5 -1 7 -12 4 -24 -4 -15 -2 -19 7
-14 7 4 11 15 9 24 -1 10 1 23 5 30 9 13 1 32 -13 32 -5 0 -12 -10 -16 -22z"/>
<path d="M3605 3380 c3 -5 10 -10 16 -10 5 0 9 5 9 10 0 6 -7 10 -16 10 -8 0
-12 -4 -9 -10z"/>
<path d="M3880 3336 c0 -9 5 -16 10 -16 6 0 10 4 10 9 0 6 -4 13 -10 16 -5 3
-10 -1 -10 -9z"/>
<path d="M4990 3315 c-10 -12 -10 -15 4 -15 9 0 16 7 16 15 0 8 -2 15 -4 15
-2 0 -9 -7 -16 -15z"/>
<path d="M4082 3288 c7 -19 38 -22 38 -4 0 10 -9 16 -21 16 -12 0 -19 -5 -17
-12z"/>
<path d="M5017 3268 c-9 -36 -2 -63 19 -67 21 -4 58 -40 60 -59 1 -7 2 -16 3
-22 0 -5 19 -10 41 -10 22 0 40 5 40 10 0 6 -5 10 -11 10 -14 0 -39 25 -39 39
0 6 -8 11 -19 11 -10 0 -21 9 -24 20 -3 12 -14 20 -26 20 -15 0 -21 6 -21 23
0 12 -4 28 -9 35 -6 11 -10 8 -14 -10z"/>
<path d="M3892 3220 c0 -14 2 -19 5 -12 2 6 2 18 0 25 -3 6 -5 1 -5 -13z"/>
<path d="M4945 3189 c-8 -37 -3 -43 39 -45 29 -1 32 2 28 23 -2 13 -9 26 -15
30 -6 4 -7 1 -2 -7 4 -7 2 -16 -6 -21 -24 -15 -31 -10 -27 21 6 39 -8 39 -17
-1z"/>
<path d="M3695 3200 c-3 -5 -1 -10 4 -10 6 0 11 5 11 10 0 6 -2 10 -4 10 -3 0
-8 -4 -11 -10z"/>
<path d="M3750 3200 c-8 -5 -10 -10 -5 -10 6 0 17 5 25 10 8 5 11 10 5 10 -5
0 -17 -5 -25 -10z"/>
<path d="M3765 3180 c-8 -13 25 -13 45 0 12 8 9 10 -12 10 -15 0 -30 -4 -33
-10z"/>
<path d="M1546 3161 c-4 -7 -5 -15 -2 -18 9 -9 19 4 14 18 -4 11 -6 11 -12 0z"/>
<path d="M4845 3130 c3 -5 10 -10 16 -10 5 0 9 5 9 10 0 6 -7 10 -16 10 -8 0
-12 -4 -9 -10z"/>
<path d="M4912 3124 c-10 -18 -4 -64 8 -64 8 0 20 35 20 63 0 21 -16 22 -28 1z"/>
<path d="M4633 3045 c-3 -9 -3 -18 -1 -21 3 -3 8 4 11 16 6 23 -1 27 -10 5z"/>
<path d="M4574 2958 c-12 -20 -5 -70 13 -90 14 -16 19 -17 31 -5 7 8 16 33 19
56 5 38 4 42 -13 40 -10 -2 -24 0 -31 4 -6 4 -15 2 -19 -5z"/>
<path d="M5110 2850 c0 -5 7 -7 15 -4 8 4 15 8 15 10 0 2 -7 4 -15 4 -8 0 -15
-4 -15 -10z"/>
<path d="M4270 2805 c0 -8 5 -15 10 -15 6 0 10 7 10 15 0 8 -4 15 -10 15 -5 0
-10 -7 -10 -15z"/>
<path d="M5121 2606 c-10 -12 -8 -13 8 -9 12 3 21 9 21 14 0 14 -16 11 -29 -5z"/>
<path d="M4847 2183 c-10 -10 -8 -33 2 -33 6 0 9 9 8 20 -1 23 -1 22 -10 13z"/>
<path d="M1791 2034 c0 -11 3 -14 6 -6 3 7 2 16 -1 19 -3 4 -6 -2 -5 -13z"/>
<path d="M4961 1634 c0 -11 3 -14 6 -6 3 7 2 16 -1 19 -3 4 -6 -2 -5 -13z"/>
<path d="M4921 1364 c0 -11 3 -14 6 -6 3 7 2 16 -1 19 -3 4 -6 -2 -5 -13z"/>
<path d="M4458 913 c7 -3 16 -2 19 1 4 3 -2 6 -13 5 -11 0 -14 -3 -6 -6z"/>
</g>
</svg>
